# xmcd CD database file
#
# Track frame offsets:
#	150
#	17952
#	34994
#	52151
#	67682
#	81610
#	99047
#	116836
#	129656
#	143173
#	158299
#	172992
#
# Disc length: 2625 seconds
#
# Revision: 0
# Processed by: cddbd v1.5.1PL0 Copyright (c) Steve Scherf et al.
# Submitted via: CDex 1.51
#
DISCID=9b0a3f0c
DTITLE=Bonnie Raitt - The Essentials
DYEAR=2005
DGENRE=Blues
TTITLE0=Runaway
TTITLE1=I Know
TTITLE2=Love Has No Pride
TTITLE3=Bluebird
TTITLE4=Fool Yourself
TTITLE5=No Way To Treat A Lady
TTITLE6=Angel From Montgomery
TTITLE7=I Thank You
TTITLE8=Guilty
TTITLE9=Keep This Heart In Mind
TTITLE10=Baby Mine
TTITLE11=My Opening Farewell
EXTD=YEAR: 2005
EXTT0=
EXTT1=
EXTT2=
EXTT3=
EXTT4=
EXTT5=
EXTT6=
EXTT7=
EXTT8=
EXTT9=
EXTT10=
EXTT11=
PLAYORDER=
